# Blender v2.79 (sub 0) OBJ File: 'mixleg1.blend'
# www.blender.org
mtllib box1.mtl
o Mesh01
v -2.134037 0.421711 4.032585
v -2.134037 0.096044 4.032585
v -2.134037 0.421711 -4.032585
v -2.134037 0.096044 -4.032585
v 2.134037 0.421711 4.032585
v 2.134037 0.096044 4.032585
v 2.134037 0.421711 -4.032585
v 2.134037 0.096044 -4.032585
vn -1.0000 0.0000 0.0000
vn 0.0000 0.0000 -1.0000
vn 1.0000 0.0000 0.0000
vn 0.0000 0.0000 1.0000
vn 0.0000 1.0000 0.0000
vn 0.0000 -1.0000 0.0000
usemtl None
s off
f 2//1 1//1 3//1
f 4//2 3//2 7//2
f 8//3 7//3 5//3
f 6//4 5//4 1//4
f 7//5 3//5 1//5
f 4//6 8//6 6//6
f 2//1 3//1 4//1
f 4//2 7//2 8//2
f 8//3 5//3 6//3
f 6//4 1//4 2//4
f 7//5 1//5 5//5
f 4//6 6//6 2//6
o Mesh02
v -1.625000 -2.921243 -3.375000
v -1.625000 0.078757 -3.375000
v -1.625000 -2.921243 -3.625000
v -1.625000 0.078757 -3.625000
v -1.375000 -2.921243 -3.375000
v -1.375000 0.078757 -3.375000
v -1.375000 -2.921243 -3.625000
v -1.375000 0.078757 -3.625000
v 1.375000 -2.921243 -3.375000
v 1.375000 0.078757 -3.375000
v 1.375000 -2.921243 -3.625000
v 1.375000 0.078757 -3.625000
v 1.625000 -2.921243 -3.375000
v 1.625000 0.078757 -3.375000
v 1.625000 -2.921243 -3.625000
v 1.625000 0.078757 -3.625000
v 1.375000 -2.921243 3.625000
v 1.375000 0.078757 3.625000
v 1.375000 -2.921243 3.375000
v 1.375000 0.078757 3.375000
v 1.625000 -2.921243 3.625000
v 1.625000 0.078757 3.625000
v 1.625000 -2.921243 3.375000
v 1.625000 0.078757 3.375000
v -1.625000 -2.921243 3.625000
v -1.625000 0.078757 3.625000
v -1.625000 -2.921243 3.375000
v -1.625000 0.078757 3.375000
v -1.375000 -2.921243 3.625000
v -1.375000 0.078757 3.625000
v -1.375000 -2.921243 3.375000
v -1.375000 0.078757 3.375000
vn -1.0000 0.0000 0.0000
vn 0.0000 0.0000 -1.0000
vn 1.0000 0.0000 0.0000
vn 0.0000 0.0000 1.0000
vn 0.0000 -1.0000 0.0000
vn 0.0000 1.0000 0.0000
usemtl None
s off
f 10//7 11//7 9//7
f 12//8 15//8 11//8
f 16//9 13//9 15//9
f 14//10 9//10 13//10
f 15//11 9//11 11//11
f 12//12 14//12 16//12
f 18//7 19//7 17//7
f 20//8 23//8 19//8
f 24//9 21//9 23//9
f 22//10 17//10 21//10
f 23//11 17//11 19//11
f 20//12 22//12 24//12
f 26//7 27//7 25//7
f 28//8 31//8 27//8
f 32//9 29//9 31//9
f 30//10 25//10 29//10
f 31//11 25//11 27//11
f 28//12 30//12 32//12
f 34//7 35//7 33//7
f 36//8 39//8 35//8
f 40//9 37//9 39//9
f 38//10 33//10 37//10
f 39//11 33//11 35//11
f 36//12 38//12 40//12
f 10//7 12//7 11//7
f 12//8 16//8 15//8
f 16//9 14//9 13//9
f 14//10 10//10 9//10
f 15//11 13//11 9//11
f 12//12 10//12 14//12
f 18//7 20//7 19//7
f 20//8 24//8 23//8
f 24//9 22//9 21//9
f 22//10 18//10 17//10
f 23//11 21//11 17//11
f 20//12 18//12 22//12
f 26//7 28//7 27//7
f 28//8 32//8 31//8
f 32//9 30//9 29//9
f 30//10 26//10 25//10
f 31//11 29//11 25//11
f 28//12 26//12 30//12
f 34//7 36//7 35//7
f 36//8 40//8 39//8
f 40//9 38//9 37//9
f 38//10 34//10 33//10
f 39//11 37//11 33//11
f 36//12 34//12 38//12
o Mesh03
v 1.500000 -3.177292 -3.700001
v 1.500000 0.083048 -3.700001
v 1.539018 -3.177292 -3.696158
v 1.539018 0.083048 -3.696158
v 1.576537 -3.177292 -3.684777
v 1.576537 0.083048 -3.684777
v 1.611114 -3.177292 -3.666295
v 1.611114 0.083048 -3.666295
v 1.641421 -3.177292 -3.641422
v 1.641421 0.083048 -3.641422
v 1.666294 -3.177292 -3.611115
v 1.666294 0.083048 -3.611115
v 1.684776 -3.177292 -3.576537
v 1.684776 0.083048 -3.576537
v 1.696157 -3.177292 -3.539019
v 1.696157 0.083048 -3.539019
v 1.700000 -3.177292 -3.500001
v 1.700000 0.083048 -3.500001
v 1.696157 -3.177292 -3.460983
v 1.696157 0.083048 -3.460983
v 1.684776 -3.177292 -3.423464
v 1.684776 0.083048 -3.423464
v 1.666294 -3.177292 -3.388886
v 1.666294 0.083048 -3.388886
v 1.641421 -3.177292 -3.358579
v 1.641421 0.083048 -3.358579
v 1.611114 -3.177292 -3.333707
v 1.611114 0.083048 -3.333707
v 1.576537 -3.177292 -3.315225
v 1.576537 0.083048 -3.315225
v 1.539018 -3.177292 -3.303843
v 1.539018 0.083048 -3.303843
v 1.500000 -3.177292 -3.300001
v 1.500000 0.083048 -3.300001
v 1.460982 -3.177292 -3.303843
v 1.460982 0.083048 -3.303843
v 1.423463 -3.177292 -3.315225
v 1.423463 0.083048 -3.315225
v 1.388886 -3.177292 -3.333707
v 1.388886 0.083048 -3.333707
v 1.358579 -3.177292 -3.358579
v 1.358579 0.083048 -3.358579
v 1.333706 -3.177292 -3.388886
v 1.333706 0.083048 -3.388886
v 1.315224 -3.177292 -3.423464
v 1.315224 0.083048 -3.423464
v 1.303843 -3.177292 -3.460983
v 1.303843 0.083048 -3.460983
v 1.300000 -3.177292 -3.500001
v 1.300000 0.083048 -3.500001
v 1.303843 -3.177292 -3.539019
v 1.303843 0.083048 -3.539019
v 1.315224 -3.177292 -3.576538
v 1.315224 0.083048 -3.576538
v 1.333706 -3.177292 -3.611115
v 1.333706 0.083048 -3.611115
v 1.358579 -3.177292 -3.641422
v 1.358579 0.083048 -3.641422
v 1.388886 -3.177292 -3.666295
v 1.388886 0.083048 -3.666295
v 1.423464 -3.177292 -3.684777
v 1.423464 0.083048 -3.684777
v 1.460982 -3.177292 -3.696158
v 1.460982 0.083048 -3.696158
v -1.500000 -3.177292 -3.700001
v -1.500000 0.083048 -3.700001
v -1.460981 -3.177292 -3.696158
v -1.460981 0.083048 -3.696158
v -1.423463 -3.177292 -3.684777
v -1.423463 0.083048 -3.684777
v -1.388886 -3.177292 -3.666294
v -1.388886 0.083048 -3.666294
v -1.358578 -3.177292 -3.641422
v -1.358578 0.083048 -3.641422
v -1.333705 -3.177292 -3.611115
v -1.333705 0.083048 -3.611115
v -1.315224 -3.177292 -3.576537
v -1.315224 0.083048 -3.576537
v -1.303842 -3.177292 -3.539019
v -1.303842 0.083048 -3.539019
v -1.299999 -3.177292 -3.500001
v -1.299999 0.083048 -3.500001
v -1.303842 -3.177292 -3.460983
v -1.303842 0.083048 -3.460983
v -1.315224 -3.177292 -3.423464
v -1.315224 0.083048 -3.423464
v -1.333705 -3.177292 -3.388886
v -1.333705 0.083048 -3.388886
v -1.358578 -3.177292 -3.358579
v -1.358578 0.083048 -3.358579
v -1.388886 -3.177292 -3.333707
v -1.388886 0.083048 -3.333707
v -1.423463 -3.177292 -3.315225
v -1.423463 0.083048 -3.315225
v -1.460981 -3.177292 -3.303843
v -1.460981 0.083048 -3.303843
v -1.500000 -3.177292 -3.300001
v -1.500000 0.083048 -3.300001
v -1.539018 -3.177292 -3.303843
v -1.539018 0.083048 -3.303843
v -1.576536 -3.177292 -3.315225
v -1.576536 0.083048 -3.315225
v -1.611114 -3.177292 -3.333707
v -1.611114 0.083048 -3.333707
v -1.641421 -3.177292 -3.358579
v -1.641421 0.083048 -3.358579
v -1.666294 -3.177292 -3.388887
v -1.666294 0.083048 -3.388887
v -1.684776 -3.177292 -3.423464
v -1.684776 0.083048 -3.423464
v -1.696157 -3.177292 -3.460983
v -1.696157 0.083048 -3.460983
v -1.699999 -3.177292 -3.500001
v -1.699999 0.083048 -3.500001
v -1.696157 -3.177292 -3.539019
v -1.696157 0.083048 -3.539019
v -1.684776 -3.177292 -3.576538
v -1.684776 0.083048 -3.576538
v -1.666294 -3.177292 -3.611115
v -1.666294 0.083048 -3.611115
v -1.641421 -3.177292 -3.641422
v -1.641421 0.083048 -3.641422
v -1.611113 -3.177292 -3.666295
v -1.611113 0.083048 -3.666295
v -1.576536 -3.177292 -3.684777
v -1.576536 0.083048 -3.684777
v -1.539017 -3.177292 -3.696158
v -1.539017 0.083048 -3.696158
v -1.500000 -3.177292 3.299999
v -1.500000 0.083048 3.299999
v -1.460981 -3.177292 3.303841
v -1.460981 0.083048 3.303841
v -1.423463 -3.177292 3.315223
v -1.423463 0.083048 3.315223
v -1.388886 -3.177292 3.333704
v -1.388886 0.083048 3.333704
v -1.358578 -3.177292 3.358578
v -1.358578 0.083048 3.358578
v -1.333705 -3.177292 3.388885
v -1.333705 0.083048 3.388885
v -1.315224 -3.177292 3.423463
v -1.315224 0.083048 3.423463
v -1.303842 -3.177292 3.460981
v -1.303842 0.083048 3.460981
v -1.299999 -3.177292 3.499999
v -1.299999 0.083048 3.499999
v -1.303842 -3.177292 3.539017
v -1.303842 0.083048 3.539017
v -1.315224 -3.177292 3.576536
v -1.315224 0.083048 3.576536
v -1.333705 -3.177292 3.611112
v -1.333705 0.083048 3.611112
v -1.358578 -3.177292 3.641421
v -1.358578 0.083048 3.641421
v -1.388886 -3.177292 3.666292
v -1.388886 0.083048 3.666292
v -1.423463 -3.177292 3.684774
v -1.423463 0.083048 3.684774
v -1.460981 -3.177292 3.696155
v -1.460981 0.083048 3.696155
v -1.500000 -3.177292 3.699999
v -1.500000 0.083048 3.699999
v -1.539018 -3.177292 3.696155
v -1.539018 0.083048 3.696155
v -1.576536 -3.177292 3.684774
v -1.576536 0.083048 3.684774
v -1.611114 -3.177292 3.666292
v -1.611114 0.083048 3.666292
v -1.641421 -3.177292 3.641421
v -1.641421 0.083048 3.641421
v -1.666294 -3.177292 3.611112
v -1.666294 0.083048 3.611112
v -1.684776 -3.177292 3.576536
v -1.684776 0.083048 3.576536
v -1.696157 -3.177292 3.539017
v -1.696157 0.083048 3.539017
v -1.699999 -3.177292 3.499999
v -1.699999 0.083048 3.499999
v -1.696157 -3.177292 3.460981
v -1.696157 0.083048 3.460981
v -1.684776 -3.177292 3.423463
v -1.684776 0.083048 3.423463
v -1.666294 -3.177292 3.388885
v -1.666294 0.083048 3.388885
v -1.641421 -3.177292 3.358578
v -1.641421 0.083048 3.358578
v -1.611113 -3.177292 3.333704
v -1.611113 0.083048 3.333704
v -1.576536 -3.177292 3.315223
v -1.576536 0.083048 3.315223
v -1.539017 -3.177292 3.303841
v -1.539017 0.083048 3.303841
v 1.500000 -3.177292 3.299999
v 1.500000 0.083048 3.299999
v 1.539018 -3.177292 3.303841
v 1.539018 0.083048 3.303841
v 1.576537 -3.177292 3.315223
v 1.576537 0.083048 3.315223
v 1.611114 -3.177292 3.333704
v 1.611114 0.083048 3.333704
v 1.641421 -3.177292 3.358578
v 1.641421 0.083048 3.358578
v 1.666294 -3.177292 3.388885
v 1.666294 0.083048 3.388885
v 1.684776 -3.177292 3.423463
v 1.684776 0.083048 3.423463
v 1.696157 -3.177292 3.460981
v 1.696157 0.083048 3.460981
v 1.700000 -3.177292 3.499999
v 1.700000 0.083048 3.499999
v 1.696157 -3.177292 3.539017
v 1.696157 0.083048 3.539017
v 1.684776 -3.177292 3.576536
v 1.684776 0.083048 3.576536
v 1.666294 -3.177292 3.611112
v 1.666294 0.083048 3.611112
v 1.641421 -3.177292 3.641421
v 1.641421 0.083048 3.641421
v 1.611114 -3.177292 3.666292
v 1.611114 0.083048 3.666292
v 1.576537 -3.177292 3.684774
v 1.576537 0.083048 3.684774
v 1.539018 -3.177292 3.696155
v 1.539018 0.083048 3.696155
v 1.500000 -3.177292 3.699999
v 1.500000 0.083048 3.699999
v 1.460982 -3.177292 3.696155
v 1.460982 0.083048 3.696155
v 1.423463 -3.177292 3.684774
v 1.423463 0.083048 3.684774
v 1.388886 -3.177292 3.666292
v 1.388886 0.083048 3.666292
v 1.358579 -3.177292 3.641421
v 1.358579 0.083048 3.641421
v 1.333706 -3.177292 3.611112
v 1.333706 0.083048 3.611112
v 1.315224 -3.177292 3.576536
v 1.315224 0.083048 3.576536
v 1.303843 -3.177292 3.539017
v 1.303843 0.083048 3.539017
v 1.300000 -3.177292 3.499999
v 1.300000 0.083048 3.499999
v 1.303843 -3.177292 3.460981
v 1.303843 0.083048 3.460981
v 1.315224 -3.177292 3.423463
v 1.315224 0.083048 3.423463
v 1.333706 -3.177292 3.388885
v 1.333706 0.083048 3.388885
v 1.358579 -3.177292 3.358578
v 1.358579 0.083048 3.358578
v 1.388886 -3.177292 3.333704
v 1.388886 0.083048 3.333704
v 1.423464 -3.177292 3.315223
v 1.423464 0.083048 3.315223
v 1.460982 -3.177292 3.303841
v 1.460982 0.083048 3.303841
vn 0.0980 0.0000 -0.9952
vn 0.2903 0.0000 -0.9569
vn 0.4714 0.0000 -0.8819
vn 0.6344 0.0000 -0.7730
vn 0.7730 0.0000 -0.6344
vn 0.8819 0.0000 -0.4714
vn 0.9569 0.0000 -0.2903
vn 0.9952 0.0000 -0.0980
vn 0.9952 0.0000 0.0980
vn 0.9569 0.0000 0.2903
vn 0.8819 0.0000 0.4714
vn 0.7730 0.0000 0.6344
vn 0.6344 0.0000 0.7730
vn 0.4714 0.0000 0.8819
vn 0.2903 0.0000 0.9569
vn 0.0980 0.0000 0.9952
vn -0.0980 0.0000 0.9952
vn -0.2903 0.0000 0.9569
vn -0.4714 0.0000 0.8819
vn -0.6344 0.0000 0.7730
vn -0.7730 0.0000 0.6344
vn -0.8819 0.0000 0.4714
vn -0.9569 0.0000 0.2903
vn -0.9952 0.0000 0.0980
vn -0.9952 0.0000 -0.0980
vn -0.9569 0.0000 -0.2903
vn -0.8819 0.0000 -0.4714
vn -0.7730 0.0000 -0.6344
vn -0.6344 0.0000 -0.7730
vn -0.4714 0.0000 -0.8819
vn 0.0000 1.0000 -0.0000
vn -0.2903 0.0000 -0.9569
vn -0.0980 0.0000 -0.9952
vn 0.0000 -1.0000 0.0000
vn 0.0000 -1.0000 -0.0001
usemtl None
s off
f 42//13 43//13 41//13
f 44//14 45//14 43//14
f 46//15 47//15 45//15
f 48//16 49//16 47//16
f 50//17 51//17 49//17
f 52//18 53//18 51//18
f 54//19 55//19 53//19
f 56//20 57//20 55//20
f 58//21 59//21 57//21
f 60//22 61//22 59//22
f 62//23 63//23 61//23
f 64//24 65//24 63//24
f 66//25 67//25 65//25
f 68//26 69//26 67//26
f 70//27 71//27 69//27
f 72//28 73//28 71//28
f 74//29 75//29 73//29
f 76//30 77//30 75//30
f 78//31 79//31 77//31
f 80//32 81//32 79//32
f 82//33 83//33 81//33
f 84//34 85//34 83//34
f 86//35 87//35 85//35
f 88//36 89//36 87//36
f 90//37 91//37 89//37
f 92//38 93//38 91//38
f 94//39 95//39 93//39
f 96//40 97//40 95//40
f 98//41 99//41 97//41
f 100//42 101//42 99//42
f 54//43 46//43 78//43
f 102//44 103//44 101//44
f 104//45 41//45 103//45
f 103//46 55//46 71//46
f 106//13 107//13 105//13
f 108//14 109//14 107//14
f 110//15 111//15 109//15
f 112//16 113//16 111//16
f 114//17 115//17 113//17
f 116//18 117//18 115//18
f 118//19 119//19 117//19
f 120//20 121//20 119//20
f 122//21 123//21 121//21
f 124//22 125//22 123//22
f 126//23 127//23 125//23
f 128//24 129//24 127//24
f 130//25 131//25 129//25
f 132//26 133//26 131//26
f 134//27 135//27 133//27
f 136//28 137//28 135//28
f 138//29 139//29 137//29
f 140//30 141//30 139//30
f 142//31 143//31 141//31
f 144//32 145//32 143//32
f 146//33 147//33 145//33
f 148//34 149//34 147//34
f 150//35 151//35 149//35
f 152//36 153//36 151//36
f 154//37 155//37 153//37
f 156//38 157//38 155//38
f 158//39 159//39 157//39
f 160//40 161//40 159//40
f 162//41 163//41 161//41
f 164//42 165//42 163//42
f 118//43 110//43 142//43
f 166//44 167//44 165//44
f 168//45 105//45 167//45
f 135//46 151//46 167//46
f 170//13 171//13 169//13
f 172//14 173//14 171//14
f 174//15 175//15 173//15
f 176//16 177//16 175//16
f 178//17 179//17 177//17
f 180//18 181//18 179//18
f 182//19 183//19 181//19
f 184//20 185//20 183//20
f 186//21 187//21 185//21
f 188//22 189//22 187//22
f 190//23 191//23 189//23
f 192//24 193//24 191//24
f 194//25 195//25 193//25
f 196//26 197//26 195//26
f 198//27 199//27 197//27
f 200//28 201//28 199//28
f 202//29 203//29 201//29
f 204//30 205//30 203//30
f 206//31 207//31 205//31
f 208//32 209//32 207//32
f 210//33 211//33 209//33
f 212//34 213//34 211//34
f 214//35 215//35 213//35
f 216//36 217//36 215//36
f 218//37 219//37 217//37
f 220//38 221//38 219//38
f 222//39 223//39 221//39
f 224//40 225//40 223//40
f 226//41 227//41 225//41
f 228//42 229//42 227//42
f 182//43 174//43 206//43
f 230//44 231//44 229//44
f 232//45 169//45 231//45
f 223//46 231//46 199//46
f 234//13 235//13 233//13
f 236//14 237//14 235//14
f 238//15 239//15 237//15
f 240//16 241//16 239//16
f 242//17 243//17 241//17
f 244//18 245//18 243//18
f 246//19 247//19 245//19
f 248//20 249//20 247//20
f 250//21 251//21 249//21
f 252//22 253//22 251//22
f 254//23 255//23 253//23
f 256//24 257//24 255//24
f 258//25 259//25 257//25
f 260//26 261//26 259//26
f 262//27 263//27 261//27
f 264//28 265//28 263//28
f 266//29 267//29 265//29
f 268//30 269//30 267//30
f 270//31 271//31 269//31
f 272//32 273//32 271//32
f 274//33 275//33 273//33
f 276//34 277//34 275//34
f 278//35 279//35 277//35
f 280//36 281//36 279//36
f 282//37 283//37 281//37
f 284//38 285//38 283//38
f 286//39 287//39 285//39
f 288//40 289//40 287//40
f 290//41 291//41 289//41
f 292//42 293//42 291//42
f 238//43 286//43 270//43
f 294//44 295//44 293//44
f 296//45 233//45 295//45
f 263//46 287//46 233//46
f 42//13 44//13 43//13
f 44//14 46//14 45//14
f 46//15 48//15 47//15
f 48//16 50//16 49//16
f 50//17 52//17 51//17
f 52//18 54//18 53//18
f 54//19 56//19 55//19
f 56//20 58//20 57//20
f 58//21 60//21 59//21
f 60//22 62//22 61//22
f 62//23 64//23 63//23
f 64//24 66//24 65//24
f 66//25 68//25 67//25
f 68//26 70//26 69//26
f 70//27 72//27 71//27
f 72//28 74//28 73//28
f 74//29 76//29 75//29
f 76//30 78//30 77//30
f 78//31 80//31 79//31
f 80//32 82//32 81//32
f 82//33 84//33 83//33
f 84//34 86//34 85//34
f 86//35 88//35 87//35
f 88//36 90//36 89//36
f 90//37 92//37 91//37
f 92//38 94//38 93//38
f 94//39 96//39 95//39
f 96//40 98//40 97//40
f 98//41 100//41 99//41
f 100//42 102//42 101//42
f 46//43 44//43 42//43
f 42//43 104//43 46//43
f 104//43 102//43 46//43
f 102//43 100//43 98//43
f 98//43 96//43 102//43
f 96//43 94//43 102//43
f 94//43 92//43 86//43
f 92//43 90//43 86//43
f 90//43 88//43 86//43
f 86//43 84//43 82//43
f 82//43 80//43 78//43
f 78//43 76//43 74//43
f 74//43 72//43 70//43
f 70//43 68//43 66//43
f 66//43 64//43 62//43
f 62//43 60//43 54//43
f 60//43 58//43 54//43
f 58//43 56//43 54//43
f 54//43 52//43 50//43
f 50//43 48//43 46//43
f 86//43 82//43 94//43
f 82//43 78//43 94//43
f 78//43 74//43 62//43
f 74//43 70//43 62//43
f 70//43 66//43 62//43
f 54//43 50//43 46//43
f 46//43 102//43 78//43
f 102//43 94//43 78//43
f 62//43 54//43 78//43
f 102//44 104//44 103//44
f 104//45 42//45 41//45
f 103//46 41//46 43//46
f 43//46 45//46 47//46
f 47//46 49//46 51//46
f 51//46 53//46 47//46
f 53//46 55//46 47//46
f 55//46 57//46 59//46
f 59//46 61//46 63//46
f 63//46 65//46 67//46
f 67//46 69//46 63//46
f 69//46 71//46 63//46
f 71//46 73//46 79//46
f 73//46 75//46 79//46
f 75//46 77//46 79//46
f 79//46 81//46 87//46
f 81//46 83//46 87//46
f 83//46 85//46 87//46
f 87//46 89//46 91//46
f 91//46 93//46 95//46
f 95//46 97//46 99//46
f 99//46 101//46 95//46
f 101//46 103//46 95//46
f 103//46 43//46 55//46
f 43//46 47//46 55//46
f 55//46 59//46 71//46
f 59//46 63//46 71//46
f 87//46 91//46 95//46
f 71//46 79//46 103//46
f 79//46 87//46 103//46
f 87//46 95//46 103//46
f 106//13 108//13 107//13
f 108//14 110//14 109//14
f 110//15 112//15 111//15
f 112//16 114//16 113//16
f 114//17 116//17 115//17
f 116//18 118//18 117//18
f 118//19 120//19 119//19
f 120//20 122//20 121//20
f 122//21 124//21 123//21
f 124//22 126//22 125//22
f 126//23 128//23 127//23
f 128//24 130//24 129//24
f 130//25 132//25 131//25
f 132//26 134//26 133//26
f 134//27 136//27 135//27
f 136//28 138//28 137//28
f 138//29 140//29 139//29
f 140//30 142//30 141//30
f 142//31 144//31 143//31
f 144//32 146//32 145//32
f 146//33 148//33 147//33
f 148//34 150//34 149//34
f 150//35 152//35 151//35
f 152//36 154//36 153//36
f 154//37 156//37 155//37
f 156//38 158//38 157//38
f 158//39 160//39 159//39
f 160//40 162//40 161//40
f 162//41 164//41 163//41
f 164//42 166//42 165//42
f 110//43 108//43 106//43
f 106//43 168//43 110//43
f 168//43 166//43 110//43
f 166//43 164//43 162//43
f 162//43 160//43 166//43
f 160//43 158//43 166//43
f 158//43 156//43 154//43
f 154//43 152//43 150//43
f 150//43 148//43 142//43
f 148//43 146//43 142//43
f 146//43 144//43 142//43
f 142//43 140//43 138//43
f 138//43 136//43 134//43
f 134//43 132//43 126//43
f 132//43 130//43 126//43
f 130//43 128//43 126//43
f 126//43 124//43 122//43
f 122//43 120//43 118//43
f 118//43 116//43 114//43
f 114//43 112//43 118//43
f 112//43 110//43 118//43
f 158//43 154//43 142//43
f 154//43 150//43 142//43
f 142//43 138//43 126//43
f 138//43 134//43 126//43
f 126//43 122//43 118//43
f 110//43 166//43 142//43
f 166//43 158//43 142//43
f 126//43 118//43 142//43
f 166//44 168//44 167//44
f 168//45 106//45 105//45
f 167//46 105//46 111//46
f 105//46 107//46 111//46
f 107//46 109//46 111//46
f 111//46 113//46 115//46
f 115//46 117//46 111//46
f 117//46 119//46 111//46
f 119//46 121//46 123//46
f 123//46 125//46 119//46
f 125//46 127//46 135//46
f 119//46 125//46 135//46
f 127//46 129//46 131//46
f 131//46 133//46 127//46
f 133//46 135//46 127//46
f 135//46 137//46 139//46
f 139//46 141//46 135//46
f 141//46 143//46 135//46
f 143//46 145//46 147//46
f 147//46 149//46 151//46
f 151//46 153//46 159//46
f 153//46 155//46 159//46
f 155//46 157//46 159//46
f 159//46 161//46 163//46
f 163//46 165//46 167//46
f 143//46 147//46 135//46
f 147//46 151//46 135//46
f 159//46 163//46 151//46
f 163//46 167//46 151//46
f 167//46 111//46 135//46
f 111//46 119//46 135//46
f 170//13 172//13 171//13
f 172//14 174//14 173//14
f 174//15 176//15 175//15
f 176//16 178//16 177//16
f 178//17 180//17 179//17
f 180//18 182//18 181//18
f 182//19 184//19 183//19
f 184//20 186//20 185//20
f 186//21 188//21 187//21
f 188//22 190//22 189//22
f 190//23 192//23 191//23
f 192//24 194//24 193//24
f 194//25 196//25 195//25
f 196//26 198//26 197//26
f 198//27 200//27 199//27
f 200//28 202//28 201//28
f 202//29 204//29 203//29
f 204//30 206//30 205//30
f 206//31 208//31 207//31
f 208//32 210//32 209//32
f 210//33 212//33 211//33
f 212//34 214//34 213//34
f 214//35 216//35 215//35
f 216//36 218//36 217//36
f 218//37 220//37 219//37
f 220//38 222//38 221//38
f 222//39 224//39 223//39
f 224//40 226//40 225//40
f 226//41 228//41 227//41
f 228//42 230//42 229//42
f 174//43 172//43 170//43
f 170//43 232//43 230//43
f 230//43 228//43 226//43
f 226//43 224//43 222//43
f 222//43 220//43 214//43
f 220//43 218//43 214//43
f 218//43 216//43 214//43
f 214//43 212//43 222//43
f 212//43 210//43 206//43
f 210//43 208//43 206//43
f 206//43 204//43 202//43
f 202//43 200//43 206//43
f 200//43 198//43 206//43
f 198//43 196//43 194//43
f 194//43 192//43 198//43
f 192//43 190//43 198//43
f 190//43 188//43 186//43
f 186//43 184//43 182//43
f 182//43 180//43 178//43
f 178//43 176//43 174//43
f 174//43 170//43 230//43
f 230//43 226//43 222//43
f 212//43 206//43 222//43
f 190//43 186//43 182//43
f 182//43 178//43 174//43
f 174//43 230//43 206//43
f 230//43 222//43 206//43
f 206//43 198//43 190//43
f 190//43 182//43 206//43
f 230//44 232//44 231//44
f 232//45 170//45 169//45
f 231//46 169//46 175//46
f 169//46 171//46 175//46
f 171//46 173//46 175//46
f 175//46 177//46 179//46
f 179//46 181//46 175//46
f 181//46 183//46 175//46
f 183//46 185//46 187//46
f 187//46 189//46 183//46
f 189//46 191//46 183//46
f 191//46 193//46 195//46
f 195//46 197//46 191//46
f 197//46 199//46 191//46
f 199//46 201//46 203//46
f 203//46 205//46 199//46
f 205//46 207//46 215//46
f 199//46 205//46 215//46
f 207//46 209//46 211//46
f 211//46 213//46 215//46
f 215//46 217//46 223//46
f 217//46 219//46 223//46
f 219//46 221//46 223//46
f 223//46 225//46 227//46
f 227//47 229//47 223//47
f 229//46 231//46 223//46
f 207//46 211//46 215//46
f 231//46 175//46 183//46
f 183//46 191//46 231//46
f 191//46 199//46 231//46
f 215//46 223//46 199//46
f 234//13 236//13 235//13
f 236//14 238//14 237//14
f 238//15 240//15 239//15
f 240//16 242//16 241//16
f 242//17 244//17 243//17
f 244//18 246//18 245//18
f 246//19 248//19 247//19
f 248//20 250//20 249//20
f 250//21 252//21 251//21
f 252//22 254//22 253//22
f 254//23 256//23 255//23
f 256//24 258//24 257//24
f 258//25 260//25 259//25
f 260//26 262//26 261//26
f 262//27 264//27 263//27
f 264//28 266//28 265//28
f 266//29 268//29 267//29
f 268//30 270//30 269//30
f 270//31 272//31 271//31
f 272//32 274//32 273//32
f 274//33 276//33 275//33
f 276//34 278//34 277//34
f 278//35 280//35 279//35
f 280//36 282//36 281//36
f 282//37 284//37 283//37
f 284//38 286//38 285//38
f 286//39 288//39 287//39
f 288//40 290//40 289//40
f 290//41 292//41 291//41
f 292//42 294//42 293//42
f 238//43 236//43 234//43
f 234//43 296//43 294//43
f 294//43 292//43 290//43
f 290//43 288//43 286//43
f 286//43 284//43 282//43
f 282//43 280//43 278//43
f 278//43 276//43 270//43
f 276//43 274//43 270//43
f 274//43 272//43 270//43
f 270//43 268//43 266//43
f 266//43 264//43 270//43
f 264//43 262//43 270//43
f 262//43 260//43 258//43
f 258//43 256//43 262//43
f 256//43 254//43 262//43
f 254//43 252//43 250//43
f 250//43 248//43 246//43
f 246//43 244//43 242//43
f 242//43 240//43 238//43
f 238//43 234//43 286//43
f 234//43 294//43 286//43
f 294//43 290//43 286//43
f 286//43 282//43 270//43
f 282//43 278//43 270//43
f 254//43 250//43 246//43
f 246//43 242//43 254//43
f 242//43 238//43 254//43
f 270//43 262//43 238//43
f 262//43 254//43 238//43
f 294//44 296//44 295//44
f 296//45 234//45 233//45
f 295//46 233//46 287//46
f 233//46 235//46 239//46
f 235//46 237//46 239//46
f 239//46 241//46 233//46
f 241//46 243//46 247//46
f 243//46 245//46 247//46
f 247//46 249//46 255//46
f 249//46 251//46 255//46
f 251//46 253//46 255//46
f 255//46 257//46 259//46
f 259//46 261//46 255//46
f 261//46 263//46 255//46
f 263//46 265//46 267//46
f 267//46 269//46 263//46
f 269//46 271//46 263//46
f 271//46 273//46 275//46
f 275//46 277//46 279//46
f 279//46 281//46 283//46
f 283//46 285//46 279//46
f 285//46 287//46 279//46
f 287//46 289//46 295//46
f 289//46 291//46 295//46
f 291//46 293//46 295//46
f 247//46 233//46 241//46
f 271//46 275//46 263//46
f 275//46 279//46 263//46
f 233//46 247//46 263//46
f 247//46 255//46 263//46
f 279//46 287//46 263//46
